{"title":"Zeitgeist Moving Forward 2011 PROPER DVDRip XviD-MEDiCS [TheCloo","uid":6160381,"size":1810848159,"categoryP":"video","categoryS":"movies","magnet":"?xt=urn:btih:d074cb7479d38a850e5a017a217127ccde4219d1&amp;dn=Zeitgeist+Moving+Forward+2011+PROPER+DVDRip+XviD-MEDiCS+%5BTheCloo&amp;tr=udp%3A%2F%2Ftracker.openbittorrent.com%3A80&amp;tr=udp%3A%2F%2Fopen.demonii.com%3A1337&amp;tr=udp%3A%2F%2Ftracker.coppersurfer.tk%3A6969&amp;tr=udp%3A%2F%2Fexodus.desync.com%3A6969","seeders":0,"leechers":1,"uploader":"TheCloon","files":-1,"time":1297193114,"description":"Synopsis:\nA feature length documentary work which presents a case for a needed transition out of the current socioeconomic monetary paradigm which governs the entire world \n\n[CODE]\n\nFormat                           : AVI\nFormat/Info                      : Audio Video Interleave\nFile size                        : 696 MiB\nDuration                         : 1h 20mn\nOverall bit rate                 : 1 204 Kbps\nWriting application              : VirtualDubMod 1.5.10.2 (build 2540/release)\nWriting library                  : VirtualDubMod build 2540/release\nsegm                             : \u0001\n\nVideo\nID                               : 0\nFormat                           : MPEG-4 Visual\nFormat profile                   : Advanced Simple@L5\nFormat settings, BVOP            : 2\nFormat settings, QPel            : No\nFormat settings, GMC             : No warppoints\nFormat settings, Matrix          : Default (H.263)\nMuxing mode                      : Packed bitstream\nCodec ID                         : XVID\nCodec ID/Hint                    : XviD\nDuration                         : 1h 20mn\nBit rate                         : 1 000 Kbps\nWidth                            : 640 pixels\nHeight                           : 352 pixels\nDisplay aspect ratio             : 16:9\nFrame rate                       : 29.970 fps\nColor space                      : YUV\nChroma subsampling               : 4:2:0\nBit depth                        : 8 bits\nScan type                        : Progressive\nCompression mode                 : Lossy\nBits/(Pixel*Frame)               : 0.148\nStream size                      : 578 MiB (83%)\nWriting library                  : XviD 1.2.1 (UTC 2008-12-04)\n\nAudio\nID                               : 1\nFormat                           : AC-3\nFormat/Info                      : Audio Coding 3\nMode extension                   : CM (complete main)\nCodec ID                         : 2000\nDuration                         : 1h 20mn\nBit rate mode                    : Constant\nBit rate                         : 192 Kbps\nChannel(s)                       : 2 channels\nChannel positions                : Front: L R\nSampling rate                    : 48.0 KHz\nBit depth                        : 16 bits\nCompression mode                 : Lossy\nStream size                      : 111 MiB (16%)\nAlignment                        : Split accross interleaves\nInterleave, duration             : 33 ms (1.00 video frame)\nInterleave, preload duration     : 500 ms\n[/CODE]\n\n[SCREENS] &lt;a href=&quot;\nhttp://bayimg.com/aadCdaadM&quot; rel=&quot;nofollow&quot; target=&quot;_NEW&quot;&gt;\nhttp://bayimg.com/aadCdaadM&lt;/a&gt;","torrent":{"xt":"urn:btih:d074cb7479d38a850e5a017a217127ccde4219d1","amp;dn":"Zeitgeist+Moving+Forward+2011+PROPER+DVDRip+XviD-MEDiCS+%5BTheCloo","amp;tr":["udp%3A%2F%2Ftracker.openbittorrent.com%3A80","udp%3A%2F%2Fopen.demonii.com%3A1337","udp%3A%2F%2Ftracker.coppersurfer.tk%3A6969","udp%3A%2F%2Fexodus.desync.com%3A6969"],"infoHash":"d074cb7479d38a850e5a017a217127ccde4219d1","infoHashBuffer":{"type":"Buffer","data":[208,116,203,116,121,211,138,133,14,90,1,122,33,113,39,204,222,66,25,209]},"announce":[],"urlList":[]}}